<svg xmlns="http://www.w3.org/2000/svg" xmlns:xlink="http://www.w3.org/1999/xlink" width="184.178" height="57.23" viewBox="0 0 184.178 57.23"><defs><style>.a{fill:none;}.b{fill:#ed1d24;}.c{fill:#092d36;}.d{fill:#0773a1;}.e{clip-path:url(#a);}.f{fill:#082c36;}</style><clipPath id="a"><path class="a" d="M0-12.534H119.117v-9.081H0Z" transform="translate(0 21.615)"/></clipPath></defs><g transform="translate(126.362 10.818)"><path class="b" d="M-162.444-103.211v4.642h-3.041v2.6h3.041v11.684a5.6,5.6,0,0,0,1.263,4.046,4.537,4.537,0,0,0,3.4,1.289,9.158,9.158,0,0,0,1.921-.2,4.49,4.49,0,0,0,1.458-.524l-.48-2.4q-.392.088-.969.169a7.723,7.723,0,0,1-1.041.08,2.025,2.025,0,0,1-1.484-.551,2.615,2.615,0,0,1-.561-1.9V-95.972h3.646v-2.6h-3.646v-4.642Zm-15.348,7.4v13.747l-2.9.5v2.24h9.3v-2.24l-2.9-.5V-93.109a4.189,4.189,0,0,1,1.458-1.823,4.008,4.008,0,0,1,2.33-.649l1.992.107.462-3.255a4.652,4.652,0,0,0-.667-.133,5.908,5.908,0,0,0-.845-.063,4.691,4.691,0,0,0-2.747.836,6.719,6.719,0,0,0-2.019,2.312l-.338-2.792h-6.028v2.259Zm-10.955,1.031a5.372,5.372,0,0,1,1.1,3.45v.463h-8.874l-.036-.089a7.029,7.029,0,0,1,1.529-3.726,3.8,3.8,0,0,1,3.006-1.485,3.927,3.927,0,0,1,3.272,1.387m1.343,15.143a8.4,8.4,0,0,0,2.73-1.68l-1.37-2.277a7.152,7.152,0,0,1-2.32,1.4,8.818,8.818,0,0,1-3.122.507,4.475,4.475,0,0,1-3.788-1.787,7.6,7.6,0,0,1-1.4-4.562l.053-.089h12.484v-2.187a9.329,9.329,0,0,0-2-6.26,7.3,7.3,0,0,0-5.878-2.348,7.532,7.532,0,0,0-5.789,2.73,9.868,9.868,0,0,0-2.445,6.838v.783a10.073,10.073,0,0,0,2.374,6.944,8.116,8.116,0,0,0,6.393,2.677,10.9,10.9,0,0,0,4.082-.685m-21.919-24.675v22.248l-2.9.5v2.24h9.3v-2.24l-2.9-.5v-25h-6.4v2.259Z" transform="translate(212.222 107.07)"/></g><path class="c" d="M-222.54-79.316h7.03l-13.367-27.1-13.44,27.1h6.957l2.375-4.917h8.087Zm-3.513-9.615h-5.664l2.84-6.483Z" transform="translate(338.584 117.888)"/><path class="d" d="M-256.755-79.316v-2.652l-2.36-.517V-92.75a4.31,4.31,0,0,1,1.524-1.559,4.209,4.209,0,0,1,2.2-.56,3.316,3.316,0,0,1,2.515.887,4.308,4.308,0,0,1,.844,3.006v8.491l-2.428.517v2.652h9.352v-2.652l-2.584-.517v-8.526q0-3.754-1.6-5.52a5.737,5.737,0,0,0-4.478-1.765,6.167,6.167,0,0,0-3.143.8,6.758,6.758,0,0,0-2.316,2.247l-.224-2.7h-6.717v2.67l2.721.517v12.28l-2.584.517v2.652Zm-22.554-3.763a4.565,4.565,0,0,1-1.413-2.171,10.219,10.219,0,0,1-.456-3.194v-.362a10.082,10.082,0,0,1,.456-3.169,4.648,4.648,0,0,1,1.4-2.17,3.58,3.58,0,0,1,2.377-.793,3.63,3.63,0,0,1,2.411.793,4.706,4.706,0,0,1,1.412,2.17,9.873,9.873,0,0,1,.466,3.169v.362a10.007,10.007,0,0,1-.466,3.194,4.694,4.694,0,0,1-1.4,2.171,3.6,3.6,0,0,1-2.386.783,3.665,3.665,0,0,1-2.4-.783m6.992,2.919a7.909,7.909,0,0,0,2.954-3.35,11.233,11.233,0,0,0,1.034-4.934v-.362a11.179,11.179,0,0,0-1.034-4.926,7.958,7.958,0,0,0-2.962-3.35,8.483,8.483,0,0,0-4.616-1.214,8.364,8.364,0,0,0-4.581,1.223,8.011,8.011,0,0,0-2.963,3.358,11.137,11.137,0,0,0-1.033,4.909v.362a11.233,11.233,0,0,0,1.033,4.934,7.889,7.889,0,0,0,2.963,3.35,8.526,8.526,0,0,0,4.615,1.206,8.453,8.453,0,0,0,4.59-1.206m-18.265.844v-2.652l-2.584-.517V-92.2a4.241,4.241,0,0,1,1.283-1.481,3.025,3.025,0,0,1,1.956-.465l2.428.137.5-4.013a7.074,7.074,0,0,0-.886-.189,6.611,6.611,0,0,0-1.025-.086,4.144,4.144,0,0,0-2.524.792,6.179,6.179,0,0,0-1.817,2.274l-.034-.379-.224-2.343h-6.717v2.67l2.721.517v12.28l-2.583.517v2.652Zm-23.088-3.763a4.571,4.571,0,0,1-1.412-2.171,10.189,10.189,0,0,1-.457-3.194v-.362a10.053,10.053,0,0,1,.457-3.169,4.654,4.654,0,0,1,1.4-2.17,3.582,3.582,0,0,1,2.377-.793,3.63,3.63,0,0,1,2.411.793,4.708,4.708,0,0,1,1.413,2.17,9.9,9.9,0,0,1,.465,3.169v.362a10.037,10.037,0,0,1-.465,3.194,4.687,4.687,0,0,1-1.4,2.171,3.6,3.6,0,0,1-2.385.783,3.666,3.666,0,0,1-2.4-.783m6.993,2.919a7.922,7.922,0,0,0,2.954-3.35,11.233,11.233,0,0,0,1.033-4.934v-.362a11.179,11.179,0,0,0-1.033-4.926,7.967,7.967,0,0,0-2.963-3.35A8.483,8.483,0,0,0-311.3-98.3a8.366,8.366,0,0,0-4.581,1.223,8.018,8.018,0,0,0-2.963,3.358,11.137,11.137,0,0,0-1.033,4.909v.362a11.233,11.233,0,0,0,1.033,4.934,7.9,7.9,0,0,0,2.963,3.35,8.528,8.528,0,0,0,4.616,1.206,8.458,8.458,0,0,0,4.59-1.206m-19.394.4a6.022,6.022,0,0,0,2.446-2.23,7.84,7.84,0,0,0,1.076-3.247l-.052-.1h-3.754a3.88,3.88,0,0,1-1.231,2.239,3.6,3.6,0,0,1-2.438.809,3.656,3.656,0,0,1-2.2-.689,4.442,4.442,0,0,1-1.49-2.032,8.989,8.989,0,0,1-.533-3.307v-.6a8.869,8.869,0,0,1,.525-3.194,4.787,4.787,0,0,1,1.533-2.145,3.875,3.875,0,0,1,2.437-.775,4.257,4.257,0,0,1,1.619.3,3.524,3.524,0,0,1,1.223.8l.637,3.29h3.307l-.017-4.978a9.257,9.257,0,0,0-2.911-1.9,10.465,10.465,0,0,0-4.168-.766,8.3,8.3,0,0,0-4.538,1.214,7.994,7.994,0,0,0-2.954,3.333,10.859,10.859,0,0,0-1.034,4.822v.6a10.852,10.852,0,0,0,1.042,4.866,7.961,7.961,0,0,0,2.963,3.307,8.4,8.4,0,0,0,4.538,1.2,8.644,8.644,0,0,0,3.97-.81" transform="translate(338.584 117.888)"/><path class="b" d="M-217.5-106.478a11.41,11.41,0,0,0-11.41-11.41,11.411,11.411,0,0,0-11.41,11.41,11.394,11.394,0,0,0,4.9,9.363l2.558-5.159a5.755,5.755,0,0,1-1.823-4.2,5.776,5.776,0,0,1,5.776-5.776,5.776,5.776,0,0,1,5.776,5.776,5.753,5.753,0,0,1-1.655,4.044l2.561,5.192a11.384,11.384,0,0,0,4.728-9.236" transform="translate(338.584 117.888)"/><g transform="translate(53 48.149)"><g class="e" transform="translate(0 0)"><g transform="translate(0 0)"><path class="f" d="M-1.293-1.229V5.957l-.936.16v.724h3V6.118l-.936-.16V-2.119H-2.229v.729ZM1.757,3.8A3.408,3.408,0,0,0,2.5,6.075a2.523,2.523,0,0,0,2.039.887,2.516,2.516,0,0,0,2.028-.884A3.406,3.406,0,0,0,7.318,3.8V3.677A3.409,3.409,0,0,0,6.568,1.4,2.522,2.522,0,0,0,4.532.512,2.5,2.5,0,0,0,2.5,1.405a3.421,3.421,0,0,0-.747,2.272Zm1.132-.126A2.97,2.97,0,0,1,3.3,2.051,1.363,1.363,0,0,1,4.532,1.4a1.377,1.377,0,0,1,1.235.649,2.939,2.939,0,0,1,.419,1.626V3.8a2.932,2.932,0,0,1-.419,1.631,1.37,1.37,0,0,1-1.223.644,1.379,1.379,0,0,1-1.238-.644A2.946,2.946,0,0,1,2.889,3.8ZM9.253-1.229V5.957l-.936.16v.724h3V6.118l-.936-.16V3.976h.741l1.648,2.068-.58.074v.724h2.579V6.118l-.706-.138L12.073,3.458l1.637-1.953.758-.15V.627h-2.6v.729l.569.075L11.108,3.074h-.723V-2.119H8.317v.729ZM21.4,6.842V6.118l-.459-.063c-.008-.076-.013-.153-.015-.23s0-.155,0-.235V2.6a1.889,1.889,0,0,0-.655-1.545,2.6,2.6,0,0,0-1.712-.54,4.071,4.071,0,0,0-1.31.2,3.359,3.359,0,0,0-1.029.543V2.465h.873l.121-.655a1.417,1.417,0,0,1,.526-.3,2.354,2.354,0,0,1,.75-.109,1.359,1.359,0,0,1,.959.319,1.119,1.119,0,0,1,.345.864v.724H18.622a3.485,3.485,0,0,0-1.962.479,1.547,1.547,0,0,0-.715,1.364,1.741,1.741,0,0,0,.505,1.336,2.345,2.345,0,0,0,2.525.2,2.744,2.744,0,0,0,.818-.7q.011.2.04.4t.08.454ZM17.329,5.8a.773.773,0,0,1-.253-.623.966.966,0,0,1,.405-.781,1.719,1.719,0,0,1,1.1-.322h1.206V5.1a1.679,1.679,0,0,1-.666.649,2.013,2.013,0,0,1-1.028.27,1.156,1.156,0,0,1-.764-.215M28.111,6.842V6.118l-.46-.063c-.008-.076-.012-.153-.014-.23s0-.155,0-.235V2.6a1.889,1.889,0,0,0-.655-1.545,2.6,2.6,0,0,0-1.712-.54,4.072,4.072,0,0,0-1.31.2,3.361,3.361,0,0,0-1.028.543V2.465H23.8l.121-.655a1.417,1.417,0,0,1,.526-.3A2.354,2.354,0,0,1,25.2,1.4a1.359,1.359,0,0,1,.959.319,1.119,1.119,0,0,1,.345.864v.724H25.336a3.484,3.484,0,0,0-1.962.479,1.547,1.547,0,0,0-.715,1.364,1.741,1.741,0,0,0,.505,1.336,2.344,2.344,0,0,0,2.524.2,2.74,2.74,0,0,0,.819-.7q.011.2.04.4t.081.454ZM24.044,5.8a.774.774,0,0,1-.253-.623.966.966,0,0,1,.405-.781,1.719,1.719,0,0,1,1.1-.322H26.5V5.1a1.679,1.679,0,0,1-.666.649,2.013,2.013,0,0,1-1.028.27,1.157,1.157,0,0,1-.764-.215m6.026-7.028V5.957l-.936.16v.724h3V6.118l-.937-.16V-2.119H29.133v.729ZM37.9,5.443a3.05,3.05,0,0,1-.379-1.588V3.613a3.019,3.019,0,0,1,.382-1.571,1.363,1.363,0,0,1,1.272-.64,1.982,1.982,0,0,1,.713.121,1.494,1.494,0,0,1,.517.316l.247.976h.9l-.052-1.378A2.709,2.709,0,0,0,40.52.759,3.476,3.476,0,0,0,39.179.512a2.506,2.506,0,0,0-2.068.887,3.407,3.407,0,0,0-.718,2.214v.242a3.425,3.425,0,0,0,.715,2.223,2.508,2.508,0,0,0,2.071.884,2.614,2.614,0,0,0,1.732-.623,1.742,1.742,0,0,0,.715-1.428l-.011-.034H40.6a1.061,1.061,0,0,1-.428.853,1.527,1.527,0,0,1-.991.348A1.366,1.366,0,0,1,37.9,5.443M42.97,3.8a3.407,3.407,0,0,0,.747,2.272,2.777,2.777,0,0,0,4.067,0A3.406,3.406,0,0,0,48.53,3.8V3.677A3.409,3.409,0,0,0,47.78,1.4a2.761,2.761,0,0,0-4.064,0,3.42,3.42,0,0,0-.747,2.272ZM44.1,3.677a2.97,2.97,0,0,1,.414-1.626,1.494,1.494,0,0,1,2.464,0A2.939,2.939,0,0,1,47.4,3.677V3.8a2.932,2.932,0,0,1-.419,1.631,1.5,1.5,0,0,1-2.461,0A2.946,2.946,0,0,1,44.1,3.8Zm6.634-2.16v4.44l-.936.16v.724h3V6.118l-.936-.16V2.39a1.361,1.361,0,0,1,.471-.589,1.294,1.294,0,0,1,.752-.21l.644.034L53.883.575a1.515,1.515,0,0,0-.216-.043A1.98,1.98,0,0,0,53.4.512a1.515,1.515,0,0,0-.887.27,2.171,2.171,0,0,0-.652.747l-.109-.9H49.8v.729ZM54.791,3.8a3.407,3.407,0,0,0,.747,2.272,2.777,2.777,0,0,0,4.067,0A3.406,3.406,0,0,0,60.351,3.8V3.677A3.411,3.411,0,0,0,59.6,1.4a2.761,2.761,0,0,0-4.064,0,3.42,3.42,0,0,0-.747,2.272Zm1.131-.126a2.97,2.97,0,0,1,.413-1.626A1.364,1.364,0,0,1,57.565,1.4a1.378,1.378,0,0,1,1.235.649,2.939,2.939,0,0,1,.419,1.626V3.8A2.932,2.932,0,0,1,58.8,5.434a1.5,1.5,0,0,1-2.462,0A2.946,2.946,0,0,1,55.922,3.8Zm5.532,3.165h3V6.118l-.936-.16V2.31a1.72,1.72,0,0,1,.6-.643,1.594,1.594,0,0,1,.865-.236,1.3,1.3,0,0,1,.991.345A1.681,1.681,0,0,1,66.3,2.942V5.957l-.936.16v.724h3V6.118l-.936-.16V2.918A2.585,2.585,0,0,0,66.882,1.1,2.029,2.029,0,0,0,65.325.512,2.076,2.076,0,0,0,64.26.785a2.254,2.254,0,0,0-.778.767L63.4.627H61.454v.729l.936.161v4.44l-.936.16Zm13.51,0V6.118L74.5,6.055c-.008-.076-.013-.153-.015-.23s0-.155,0-.235V2.6a1.889,1.889,0,0,0-.655-1.545A2.6,2.6,0,0,0,72.12.512a4.076,4.076,0,0,0-1.31.2,3.361,3.361,0,0,0-1.028.543V2.465h.873l.121-.655a1.417,1.417,0,0,1,.526-.3,2.354,2.354,0,0,1,.75-.109,1.359,1.359,0,0,1,.959.319,1.119,1.119,0,0,1,.345.864v.724H72.189a3.485,3.485,0,0,0-1.962.479,1.547,1.547,0,0,0-.715,1.364,1.741,1.741,0,0,0,.505,1.336,2.345,2.345,0,0,0,2.525.2,2.743,2.743,0,0,0,.818-.7q.011.2.04.4t.08.454ZM70.9,5.8a.773.773,0,0,1-.253-.623.966.966,0,0,1,.405-.781,1.719,1.719,0,0,1,1.1-.322h1.206V5.1a1.679,1.679,0,0,1-.666.649,2.013,2.013,0,0,1-1.028.27A1.156,1.156,0,0,1,70.9,5.8m5.077,1.042h3V6.118l-.936-.16V2.31a1.713,1.713,0,0,1,.6-.643,1.592,1.592,0,0,1,.864-.236,1.3,1.3,0,0,1,.991.345,1.684,1.684,0,0,1,.324,1.166V5.957l-.936.16v.724h3V6.118l-.936-.16V2.918A2.585,2.585,0,0,0,81.4,1.1,2.029,2.029,0,0,0,79.846.512a2.075,2.075,0,0,0-1.065.273A2.255,2.255,0,0,0,78,1.551l-.08-.925H75.974v.729l.936.161v4.44l-.936.16Zm7.973,0h3V6.118l-.936-.16V.627H83.947v.729l.936.161v4.44l-.936.16Zm2.068-8.961H84.884V-.964h1.131ZM92.2,6.741a2.715,2.715,0,0,0,.881-.543l-.442-.735a2.318,2.318,0,0,1-.75.451,2.844,2.844,0,0,1-1.008.164A1.445,1.445,0,0,1,89.662,5.5a2.455,2.455,0,0,1-.454-1.473L89.226,4h4.033V3.292a3.011,3.011,0,0,0-.647-2.022,2.355,2.355,0,0,0-1.9-.758,2.432,2.432,0,0,0-1.87.881,3.186,3.186,0,0,0-.79,2.209v.253A3.253,3.253,0,0,0,88.821,6.1a2.622,2.622,0,0,0,2.065.865A3.534,3.534,0,0,0,92.2,6.741M91.77,1.85a1.735,1.735,0,0,1,.356,1.114v.15H89.26l-.011-.029a2.269,2.269,0,0,1,.494-1.2,1.226,1.226,0,0,1,.971-.479,1.269,1.269,0,0,1,1.057.448m7.358,4.992h1.729V6.118l-.712-.16V.627H98.181v.729l.833.161v3.59a1.53,1.53,0,0,1-.594.692,1.862,1.862,0,0,1-1,.244,1.089,1.089,0,0,1-.913-.374A2.313,2.313,0,0,1,96.216,4.3V.627H94.372v.729l.713.161V4.292a3.014,3.014,0,0,0,.568,2.022,1.99,1.99,0,0,0,1.58.649,2.076,2.076,0,0,0,1.065-.27,2.1,2.1,0,0,0,.755-.77ZM104.194.627h-2.367v.729l.546.081,1.568,5.405h.913l1.183-3.785.242-1.039.034-.006.258,1.045,1.206,3.785h.913l1.568-5.405.54-.081V.627h-2.366v.729l.723.126-.764,3.1-.167.839h-.034l-.178-.839L106.768.627h-.908l-1.241,3.952-.16.752h-.034l-.132-.752-.81-3.1.713-.126Zm12.453.58A2.648,2.648,0,0,0,115.711.7a4.074,4.074,0,0,0-1.269-.184,2.549,2.549,0,0,0-1.68.534,1.622,1.622,0,0,0-.646,1.292,1.355,1.355,0,0,0,.574,1.149,4.526,4.526,0,0,0,1.706.672,2.675,2.675,0,0,1,1.077.419.771.771,0,0,1,.284.615.754.754,0,0,1-.342.641,1.6,1.6,0,0,1-.945.244A2.933,2.933,0,0,1,113.784,6a1.174,1.174,0,0,1-.531-.258l-.213-.833h-.85l.006,1.419A3.371,3.371,0,0,0,113.2,6.8a4.539,4.539,0,0,0,1.269.164,2.8,2.8,0,0,0,1.749-.511,1.605,1.605,0,0,0,.669-1.338,1.384,1.384,0,0,0-.574-1.163,4.538,4.538,0,0,0-1.752-.687,2.679,2.679,0,0,1-1.051-.379.711.711,0,0,1-.258-.58.828.828,0,0,1,.293-.637,1.3,1.3,0,0,1,.9-.264,2,2,0,0,1,.709.118,1.535,1.535,0,0,1,.52.313l.184.747h.85Z" transform="translate(2.229 2.119)"/></g></g></g><g transform="translate(53 69.764)"><g class="e" transform="translate(0 -21.615)"><g transform="translate(0 0)"><path class="f" d="M-1.293-1.229V5.957l-.936.16v.724h3V6.118l-.936-.16V-2.119H-2.229v.729ZM1.757,3.8A3.408,3.408,0,0,0,2.5,6.075a2.523,2.523,0,0,0,2.039.887,2.516,2.516,0,0,0,2.028-.884A3.406,3.406,0,0,0,7.318,3.8V3.677A3.409,3.409,0,0,0,6.568,1.4,2.522,2.522,0,0,0,4.532.512,2.5,2.5,0,0,0,2.5,1.405a3.421,3.421,0,0,0-.747,2.272Zm1.132-.126A2.97,2.97,0,0,1,3.3,2.051,1.363,1.363,0,0,1,4.532,1.4a1.377,1.377,0,0,1,1.235.649,2.939,2.939,0,0,1,.419,1.626V3.8a2.932,2.932,0,0,1-.419,1.631,1.37,1.37,0,0,1-1.223.644,1.379,1.379,0,0,1-1.238-.644A2.946,2.946,0,0,1,2.889,3.8ZM9.253-1.229V5.957l-.936.16v.724h3V6.118l-.936-.16V3.976h.741l1.648,2.068-.58.074v.724h2.579V6.118l-.706-.138L12.073,3.458l1.637-1.953.758-.15V.627h-2.6v.729l.569.075L11.108,3.074h-.723V-2.119H8.317v.729ZM21.4,6.842V6.118l-.459-.063c-.008-.076-.013-.153-.015-.23s0-.155,0-.235V2.6a1.889,1.889,0,0,0-.655-1.545,2.6,2.6,0,0,0-1.712-.54,4.071,4.071,0,0,0-1.31.2,3.359,3.359,0,0,0-1.029.543V2.465h.873l.121-.655a1.417,1.417,0,0,1,.526-.3,2.354,2.354,0,0,1,.75-.109,1.359,1.359,0,0,1,.959.319,1.119,1.119,0,0,1,.345.864v.724H18.622a3.485,3.485,0,0,0-1.962.479,1.547,1.547,0,0,0-.715,1.364,1.741,1.741,0,0,0,.505,1.336,2.345,2.345,0,0,0,2.525.2,2.744,2.744,0,0,0,.818-.7q.011.2.04.4t.08.454ZM17.329,5.8a.773.773,0,0,1-.253-.623.966.966,0,0,1,.405-.781,1.719,1.719,0,0,1,1.1-.322h1.206V5.1a1.679,1.679,0,0,1-.666.649,2.013,2.013,0,0,1-1.028.27,1.156,1.156,0,0,1-.764-.215M28.111,6.842V6.118l-.46-.063c-.008-.076-.012-.153-.014-.23s0-.155,0-.235V2.6a1.889,1.889,0,0,0-.655-1.545,2.6,2.6,0,0,0-1.712-.54,4.072,4.072,0,0,0-1.31.2,3.361,3.361,0,0,0-1.028.543V2.465H23.8l.121-.655a1.417,1.417,0,0,1,.526-.3A2.354,2.354,0,0,1,25.2,1.4a1.359,1.359,0,0,1,.959.319,1.119,1.119,0,0,1,.345.864v.724H25.336a3.484,3.484,0,0,0-1.962.479,1.547,1.547,0,0,0-.715,1.364,1.741,1.741,0,0,0,.505,1.336,2.344,2.344,0,0,0,2.524.2,2.74,2.74,0,0,0,.819-.7q.011.2.04.4t.081.454ZM24.044,5.8a.774.774,0,0,1-.253-.623.966.966,0,0,1,.405-.781,1.719,1.719,0,0,1,1.1-.322H26.5V5.1a1.679,1.679,0,0,1-.666.649,2.013,2.013,0,0,1-1.028.27,1.157,1.157,0,0,1-.764-.215m6.026-7.028V5.957l-.936.16v.724h3V6.118l-.937-.16V-2.119H29.133v.729ZM37.9,5.443a3.05,3.05,0,0,1-.379-1.588V3.613a3.019,3.019,0,0,1,.382-1.571,1.363,1.363,0,0,1,1.272-.64,1.982,1.982,0,0,1,.713.121,1.494,1.494,0,0,1,.517.316l.247.976h.9l-.052-1.378A2.709,2.709,0,0,0,40.52.759,3.476,3.476,0,0,0,39.179.512a2.506,2.506,0,0,0-2.068.887,3.407,3.407,0,0,0-.718,2.214v.242a3.425,3.425,0,0,0,.715,2.223,2.508,2.508,0,0,0,2.071.884,2.614,2.614,0,0,0,1.732-.623,1.742,1.742,0,0,0,.715-1.428l-.011-.034H40.6a1.061,1.061,0,0,1-.428.853,1.527,1.527,0,0,1-.991.348A1.366,1.366,0,0,1,37.9,5.443M42.97,3.8a3.407,3.407,0,0,0,.747,2.272,2.777,2.777,0,0,0,4.067,0A3.406,3.406,0,0,0,48.53,3.8V3.677A3.409,3.409,0,0,0,47.78,1.4a2.761,2.761,0,0,0-4.064,0,3.42,3.42,0,0,0-.747,2.272ZM44.1,3.677a2.97,2.97,0,0,1,.414-1.626,1.494,1.494,0,0,1,2.464,0A2.939,2.939,0,0,1,47.4,3.677V3.8a2.932,2.932,0,0,1-.419,1.631,1.5,1.5,0,0,1-2.461,0A2.946,2.946,0,0,1,44.1,3.8Zm6.634-2.16v4.44l-.936.16v.724h3V6.118l-.936-.16V2.39a1.361,1.361,0,0,1,.471-.589,1.294,1.294,0,0,1,.752-.21l.644.034L53.883.575a1.515,1.515,0,0,0-.216-.043A1.98,1.98,0,0,0,53.4.512a1.515,1.515,0,0,0-.887.27,2.171,2.171,0,0,0-.652.747l-.109-.9H49.8v.729ZM54.791,3.8a3.407,3.407,0,0,0,.747,2.272,2.777,2.777,0,0,0,4.067,0A3.406,3.406,0,0,0,60.351,3.8V3.677A3.411,3.411,0,0,0,59.6,1.4a2.761,2.761,0,0,0-4.064,0,3.42,3.42,0,0,0-.747,2.272Zm1.131-.126a2.97,2.97,0,0,1,.413-1.626A1.364,1.364,0,0,1,57.565,1.4a1.378,1.378,0,0,1,1.235.649,2.939,2.939,0,0,1,.419,1.626V3.8A2.932,2.932,0,0,1,58.8,5.434a1.5,1.5,0,0,1-2.462,0A2.946,2.946,0,0,1,55.922,3.8Zm5.532,3.165h3V6.118l-.936-.16V2.31a1.72,1.72,0,0,1,.6-.643,1.594,1.594,0,0,1,.865-.236,1.3,1.3,0,0,1,.991.345A1.681,1.681,0,0,1,66.3,2.942V5.957l-.936.16v.724h3V6.118l-.936-.16V2.918A2.585,2.585,0,0,0,66.882,1.1,2.029,2.029,0,0,0,65.325.512,2.076,2.076,0,0,0,64.26.785a2.254,2.254,0,0,0-.778.767L63.4.627H61.454v.729l.936.161v4.44l-.936.16Zm13.51,0V6.118L74.5,6.055c-.008-.076-.013-.153-.015-.23s0-.155,0-.235V2.6a1.889,1.889,0,0,0-.655-1.545A2.6,2.6,0,0,0,72.12.512a4.076,4.076,0,0,0-1.31.2,3.361,3.361,0,0,0-1.028.543V2.465h.873l.121-.655a1.417,1.417,0,0,1,.526-.3,2.354,2.354,0,0,1,.75-.109,1.359,1.359,0,0,1,.959.319,1.119,1.119,0,0,1,.345.864v.724H72.189a3.485,3.485,0,0,0-1.962.479,1.547,1.547,0,0,0-.715,1.364,1.741,1.741,0,0,0,.505,1.336,2.345,2.345,0,0,0,2.525.2,2.743,2.743,0,0,0,.818-.7q.011.2.04.4t.08.454ZM70.9,5.8a.773.773,0,0,1-.253-.623.966.966,0,0,1,.405-.781,1.719,1.719,0,0,1,1.1-.322h1.206V5.1a1.679,1.679,0,0,1-.666.649,2.013,2.013,0,0,1-1.028.27A1.156,1.156,0,0,1,70.9,5.8m5.077,1.042h3V6.118l-.936-.16V2.31a1.713,1.713,0,0,1,.6-.643,1.592,1.592,0,0,1,.864-.236,1.3,1.3,0,0,1,.991.345,1.684,1.684,0,0,1,.324,1.166V5.957l-.936.16v.724h3V6.118l-.936-.16V2.918A2.585,2.585,0,0,0,81.4,1.1,2.029,2.029,0,0,0,79.846.512a2.075,2.075,0,0,0-1.065.273A2.255,2.255,0,0,0,78,1.551l-.08-.925H75.974v.729l.936.161v4.44l-.936.16Zm7.973,0h3V6.118l-.936-.16V.627H83.947v.729l.936.161v4.44l-.936.16Zm2.068-8.961H84.884V-.964h1.131ZM92.2,6.741a2.715,2.715,0,0,0,.881-.543l-.442-.735a2.318,2.318,0,0,1-.75.451,2.844,2.844,0,0,1-1.008.164A1.445,1.445,0,0,1,89.662,5.5a2.455,2.455,0,0,1-.454-1.473L89.226,4h4.033V3.292a3.011,3.011,0,0,0-.647-2.022,2.355,2.355,0,0,0-1.9-.758,2.432,2.432,0,0,0-1.87.881,3.186,3.186,0,0,0-.79,2.209v.253A3.253,3.253,0,0,0,88.821,6.1a2.622,2.622,0,0,0,2.065.865A3.534,3.534,0,0,0,92.2,6.741M91.77,1.85a1.735,1.735,0,0,1,.356,1.114v.15H89.26l-.011-.029a2.269,2.269,0,0,1,.494-1.2,1.226,1.226,0,0,1,.971-.479,1.269,1.269,0,0,1,1.057.448m7.358,4.992h1.729V6.118l-.712-.16V.627H98.181v.729l.833.161v3.59a1.53,1.53,0,0,1-.594.692,1.862,1.862,0,0,1-1,.244,1.089,1.089,0,0,1-.913-.374A2.313,2.313,0,0,1,96.216,4.3V.627H94.372v.729l.713.161V4.292a3.014,3.014,0,0,0,.568,2.022,1.99,1.99,0,0,0,1.58.649,2.076,2.076,0,0,0,1.065-.27,2.1,2.1,0,0,0,.755-.77ZM104.194.627h-2.367v.729l.546.081,1.568,5.405h.913l1.183-3.785.242-1.039.034-.006.258,1.045,1.206,3.785h.913l1.568-5.405.54-.081V.627h-2.366v.729l.723.126-.764,3.1-.167.839h-.034l-.178-.839L106.768.627h-.908l-1.241,3.952-.16.752h-.034l-.132-.752-.81-3.1.713-.126Zm12.453.58A2.648,2.648,0,0,0,115.711.7a4.074,4.074,0,0,0-1.269-.184,2.549,2.549,0,0,0-1.68.534,1.622,1.622,0,0,0-.646,1.292,1.355,1.355,0,0,0,.574,1.149,4.526,4.526,0,0,0,1.706.672,2.675,2.675,0,0,1,1.077.419.771.771,0,0,1,.284.615.754.754,0,0,1-.342.641,1.6,1.6,0,0,1-.945.244A2.933,2.933,0,0,1,113.784,6a1.174,1.174,0,0,1-.531-.258l-.213-.833h-.85l.006,1.419A3.371,3.371,0,0,0,113.2,6.8a4.539,4.539,0,0,0,1.269.164,2.8,2.8,0,0,0,1.749-.511,1.605,1.605,0,0,0,.669-1.338,1.384,1.384,0,0,0-.574-1.163,4.538,4.538,0,0,0-1.752-.687,2.679,2.679,0,0,1-1.051-.379.711.711,0,0,1-.258-.58.828.828,0,0,1,.293-.637,1.3,1.3,0,0,1,.9-.264,2,2,0,0,1,.709.118,1.535,1.535,0,0,1,.52.313l.184.747h.85Z" transform="translate(2.229 2.119)"/></g></g></g></svg>