<svg xmlns="http://www.w3.org/2000/svg" width="184.178" height="57.249" viewBox="0 0 184.178 57.249"><defs><style>.a{fill:#092d36;}.b{fill:#ed1d24;}.c{fill:#0773a1;}</style></defs><path class="a" d="M-166.7-66.258a2.593,2.593,0,0,0-.914-.5,3.968,3.968,0,0,0-1.239-.179,2.486,2.486,0,0,0-1.64.521,1.583,1.583,0,0,0-.631,1.262,1.323,1.323,0,0,0,.56,1.122,4.415,4.415,0,0,0,1.666.655,2.607,2.607,0,0,1,1.051.41.753.753,0,0,1,.278.6.736.736,0,0,1-.334.625,1.561,1.561,0,0,1-.922.239,2.9,2.9,0,0,1-.671-.079,1.149,1.149,0,0,1-.518-.252l-.208-.813h-.83l.006,1.385a3.279,3.279,0,0,0,.982.462,4.415,4.415,0,0,0,1.239.16,2.732,2.732,0,0,0,1.707-.5,1.567,1.567,0,0,0,.654-1.307,1.351,1.351,0,0,0-.561-1.135,4.416,4.416,0,0,0-1.711-.671,2.622,2.622,0,0,1-1.026-.369.7.7,0,0,1-.252-.567.807.807,0,0,1,.286-.622,1.274,1.274,0,0,1,.875-.258,1.946,1.946,0,0,1,.692.115,1.489,1.489,0,0,1,.508.305l.179.729h.83Zm-12.157-.566h-2.31v.712l.532.079,1.531,5.276h.892l1.155-3.7.236-1.015.033-.006.253,1.021,1.177,3.7h.892l1.53-5.276.528-.079v-.712h-2.31v.712l.706.123-.746,3.023-.163.818h-.033l-.174-.818-1.217-3.858h-.886l-1.211,3.858-.157.734h-.034l-.129-.734-.791-3.023.7-.123Zm-4.946,6.067h1.688v-.706l-.7-.157v-5.2h-1.918v.712l.813.157v3.505a1.5,1.5,0,0,1-.58.676,1.826,1.826,0,0,1-.973.238,1.065,1.065,0,0,1-.892-.365,2.256,2.256,0,0,1-.286-1.334v-3.589h-1.8v.712l.7.157v2.709a2.94,2.94,0,0,0,.555,1.973,1.941,1.941,0,0,0,1.542.634,2.032,2.032,0,0,0,1.04-.263,2.047,2.047,0,0,0,.737-.752Zm-7.183-4.873a1.693,1.693,0,0,1,.348,1.088v.146h-2.8l-.011-.028a2.216,2.216,0,0,1,.481-1.175,1.2,1.2,0,0,1,.948-.468,1.241,1.241,0,0,1,1.032.437m.424,4.775a2.655,2.655,0,0,0,.86-.53l-.431-.718a2.255,2.255,0,0,1-.733.441,2.789,2.789,0,0,1-.984.16,1.41,1.41,0,0,1-1.194-.564,2.4,2.4,0,0,1-.443-1.438l.017-.029h3.937v-.689a2.937,2.937,0,0,0-.632-1.974,2.3,2.3,0,0,0-1.853-.74,2.373,2.373,0,0,0-1.825.86,3.112,3.112,0,0,0-.771,2.156v.247a3.174,3.174,0,0,0,.749,2.19,2.558,2.558,0,0,0,2.015.844,3.448,3.448,0,0,0,1.288-.216m-6.042-8.65h-1.105v1.127h1.105Zm-2.019,8.748h2.932v-.706l-.913-.157v-5.2h-2.019v.712l.914.157v4.335l-.914.157Zm-7.783,0h2.932v-.706l-.914-.157v-3.561a1.668,1.668,0,0,1,.587-.628,1.545,1.545,0,0,1,.843-.23,1.273,1.273,0,0,1,.968.336,1.643,1.643,0,0,1,.316,1.139v2.944l-.914.157v.706h2.933v-.706l-.914-.157v-2.967a2.523,2.523,0,0,0-.538-1.775,1.982,1.982,0,0,0-1.52-.574,2.02,2.02,0,0,0-1.04.266,2.2,2.2,0,0,0-.76.749l-.078-.9h-1.9v.712l.913.157v4.335l-.913.157Zm-8.041-1.017a.757.757,0,0,1-.247-.609.947.947,0,0,1,.4-.763,1.684,1.684,0,0,1,1.074-.314h1.178v1a1.642,1.642,0,0,1-.651.633,1.957,1.957,0,0,1-1,.264,1.133,1.133,0,0,1-.746-.21m3.97,1.017v-.706l-.448-.062c-.008-.075-.013-.15-.015-.224s0-.152,0-.23V-64.9a1.843,1.843,0,0,0-.639-1.508,2.538,2.538,0,0,0-1.671-.527,3.965,3.965,0,0,0-1.279.2,3.281,3.281,0,0,0-1,.53v1.177h.852l.118-.639a1.4,1.4,0,0,1,.513-.292,2.3,2.3,0,0,1,.732-.106,1.327,1.327,0,0,1,.936.311,1.091,1.091,0,0,1,.337.844v.707h-1.138a3.393,3.393,0,0,0-1.915.468,1.509,1.509,0,0,0-.7,1.331,1.7,1.7,0,0,0,.494,1.3,2.029,2.029,0,0,0,1.441.463,2.043,2.043,0,0,0,1.023-.272,2.675,2.675,0,0,0,.8-.681c.008.131.021.261.04.392s.045.279.078.443Zm-13.189,0h2.933v-.706l-.914-.157v-3.561a1.673,1.673,0,0,1,.586-.628,1.551,1.551,0,0,1,.844-.23,1.27,1.27,0,0,1,.967.336,1.643,1.643,0,0,1,.317,1.139v2.944l-.914.157v.706h2.932v-.706l-.913-.157v-2.967a2.523,2.523,0,0,0-.539-1.775,1.98,1.98,0,0,0-1.52-.574,2.025,2.025,0,0,0-1.04.266,2.191,2.191,0,0,0-.759.749l-.079-.9h-1.9v.712l.914.157v4.335l-.914.157Zm-5.4-3.09a2.9,2.9,0,0,1,.4-1.586,1.33,1.33,0,0,1,1.2-.634,1.345,1.345,0,0,1,1.206.634,2.873,2.873,0,0,1,.409,1.586v.124a2.866,2.866,0,0,1-.409,1.592,1.339,1.339,0,0,1-1.195.629,1.345,1.345,0,0,1-1.208-.629,2.866,2.866,0,0,1-.407-1.592Zm-1.1.124a3.327,3.327,0,0,0,.728,2.218,2.466,2.466,0,0,0,1.991.866,2.457,2.457,0,0,0,1.98-.863,3.327,3.327,0,0,0,.729-2.221v-.124a3.326,3.326,0,0,0-.732-2.22,2.462,2.462,0,0,0-1.988-.869,2.443,2.443,0,0,0-1.98.872,3.337,3.337,0,0,0-.728,2.217Zm-3.959-2.232v4.335l-.915.157v.706h2.933v-.706l-.914-.157V-65.1a1.329,1.329,0,0,1,.46-.574,1.261,1.261,0,0,1,.735-.205l.628.034.146-1.027a1.612,1.612,0,0,0-.211-.042,1.881,1.881,0,0,0-.266-.019,1.482,1.482,0,0,0-.866.263,2.119,2.119,0,0,0-.637.729l-.106-.88h-1.9v.712Zm-6.477,2.108a2.9,2.9,0,0,1,.4-1.586,1.33,1.33,0,0,1,1.2-.634,1.341,1.341,0,0,1,1.205.634,2.865,2.865,0,0,1,.41,1.586v.124a2.858,2.858,0,0,1-.41,1.592,1.336,1.336,0,0,1-1.194.629,1.344,1.344,0,0,1-1.208-.629,2.875,2.875,0,0,1-.407-1.592Zm-1.105.124a3.328,3.328,0,0,0,.729,2.218,2.466,2.466,0,0,0,1.991.866,2.459,2.459,0,0,0,1.98-.863,3.326,3.326,0,0,0,.728-2.221v-.124a3.326,3.326,0,0,0-.731-2.22,2.462,2.462,0,0,0-1.988-.869,2.443,2.443,0,0,0-1.98.872,3.338,3.338,0,0,0-.729,2.217Zm-4.945,1.6a2.978,2.978,0,0,1-.37-1.551v-.235a2.943,2.943,0,0,1,.373-1.534,1.329,1.329,0,0,1,1.242-.625,1.926,1.926,0,0,1,.7.118,1.454,1.454,0,0,1,.5.308l.241.953h.88l-.05-1.345a2.636,2.636,0,0,0-.962-.662,3.378,3.378,0,0,0-1.309-.241,2.447,2.447,0,0,0-2.019.866,3.328,3.328,0,0,0-.7,2.162v.235a3.346,3.346,0,0,0,.7,2.171,2.449,2.449,0,0,0,2.022.863,2.554,2.554,0,0,0,1.69-.608,1.7,1.7,0,0,0,.7-1.394l-.011-.034h-.992a1.037,1.037,0,0,1-.418.833,1.492,1.492,0,0,1-.967.34,1.333,1.333,0,0,1-1.245-.62m-7.649-6.513v7.015l-.914.157v.706h2.933v-.706l-.914-.157V-69.5h-2.019v.712Zm-5.882,6.861a.759.759,0,0,1-.246-.609.944.944,0,0,1,.4-.763,1.68,1.68,0,0,1,1.074-.314h1.177v1a1.645,1.645,0,0,1-.65.633,1.964,1.964,0,0,1-1,.264,1.133,1.133,0,0,1-.746-.21m3.97,1.017v-.706l-.448-.062c-.008-.075-.012-.15-.014-.224s0-.152,0-.23V-64.9a1.843,1.843,0,0,0-.639-1.508,2.538,2.538,0,0,0-1.671-.527,3.96,3.96,0,0,0-1.279.2,3.275,3.275,0,0,0-1,.53v1.177h.853l.117-.639a1.4,1.4,0,0,1,.513-.292,2.306,2.306,0,0,1,.733-.106,1.329,1.329,0,0,1,.936.311,1.094,1.094,0,0,1,.336.844v.707h-1.138a3.4,3.4,0,0,0-1.915.468,1.51,1.51,0,0,0-.7,1.331,1.7,1.7,0,0,0,.493,1.3,2.031,2.031,0,0,0,1.441.463,2.047,2.047,0,0,0,1.024-.272,2.675,2.675,0,0,0,.8-.681c.007.131.021.261.039.392s.045.279.079.443Zm-10.525-1.017a.757.757,0,0,1-.247-.609.945.945,0,0,1,.4-.763,1.681,1.681,0,0,1,1.074-.314h1.177v1a1.645,1.645,0,0,1-.65.633,1.964,1.964,0,0,1-1,.264,1.135,1.135,0,0,1-.746-.21m3.97,1.017v-.706l-.448-.062c-.008-.075-.012-.15-.014-.224s0-.152,0-.23V-64.9a1.843,1.843,0,0,0-.639-1.508,2.538,2.538,0,0,0-1.671-.527,3.965,3.965,0,0,0-1.279.2,3.275,3.275,0,0,0-1,.53v1.177h.852l.118-.639a1.4,1.4,0,0,1,.513-.292,2.3,2.3,0,0,1,.732-.106,1.332,1.332,0,0,1,.937.311,1.094,1.094,0,0,1,.336.844v.707h-1.138a3.4,3.4,0,0,0-1.915.468,1.508,1.508,0,0,0-.7,1.331,1.7,1.7,0,0,0,.493,1.3,2.029,2.029,0,0,0,1.441.463,2.047,2.047,0,0,0,1.024-.272,2.687,2.687,0,0,0,.8-.681c.007.131.02.261.039.392s.045.279.079.443Zm-11.854-7.878v7.015l-.914.157v.706h2.933v-.706l-.914-.157v-1.935h.723l1.609,2.019-.566.073v.706h2.518v-.706l-.69-.135-1.946-2.462,1.6-1.906.74-.146v-.712h-2.541v.712l.556.073-1.3,1.6h-.706V-69.5h-2.019v.712Zm-6.213,4.788a2.9,2.9,0,0,1,.4-1.586,1.33,1.33,0,0,1,1.2-.634,1.341,1.341,0,0,1,1.205.634,2.865,2.865,0,0,1,.41,1.586v.124a2.859,2.859,0,0,1-.41,1.592,1.336,1.336,0,0,1-1.194.629,1.346,1.346,0,0,1-1.208-.629,2.875,2.875,0,0,1-.407-1.592Zm-1.1.124a3.323,3.323,0,0,0,.73,2.218,2.463,2.463,0,0,0,1.99.866,2.457,2.457,0,0,0,1.979-.863,3.328,3.328,0,0,0,.73-2.221v-.124a3.326,3.326,0,0,0-.732-2.22,2.462,2.462,0,0,0-1.988-.869,2.44,2.44,0,0,0-1.979.872,3.333,3.333,0,0,0-.73,2.217Zm-2.977-4.912v7.015l-.914.157v.706h2.933v-.706l-.915-.157V-69.5h-2.018v.712Z" transform="translate(338.584 117.888)"/><g transform="translate(338.584 117.888)"><path class="b" d="M-162.444-103.211v4.642h-3.041v2.6h3.041v11.684a5.6,5.6,0,0,0,1.263,4.046,4.537,4.537,0,0,0,3.4,1.289,9.158,9.158,0,0,0,1.921-.2,4.49,4.49,0,0,0,1.458-.524l-.48-2.4q-.392.088-.969.169a7.723,7.723,0,0,1-1.041.08,2.025,2.025,0,0,1-1.484-.551,2.615,2.615,0,0,1-.561-1.9V-95.972h3.646v-2.6h-3.646v-4.642Zm-15.348,7.4v13.747l-2.9.5v2.24h9.3v-2.24l-2.9-.5V-93.109a4.189,4.189,0,0,1,1.458-1.823,4.008,4.008,0,0,1,2.33-.649l1.992.107.462-3.255a4.652,4.652,0,0,0-.667-.133,5.908,5.908,0,0,0-.845-.063,4.691,4.691,0,0,0-2.747.836,6.719,6.719,0,0,0-2.019,2.312l-.338-2.792h-6.028v2.259Zm-10.955,1.031a5.372,5.372,0,0,1,1.1,3.45v.463h-8.874l-.036-.089a7.029,7.029,0,0,1,1.529-3.726,3.8,3.8,0,0,1,3.006-1.485,3.927,3.927,0,0,1,3.272,1.387m1.343,15.143a8.4,8.4,0,0,0,2.73-1.68l-1.37-2.277a7.152,7.152,0,0,1-2.32,1.4,8.818,8.818,0,0,1-3.122.507,4.475,4.475,0,0,1-3.788-1.787,7.6,7.6,0,0,1-1.4-4.562l.053-.089h12.484v-2.187a9.329,9.329,0,0,0-2-6.26,7.3,7.3,0,0,0-5.878-2.348,7.532,7.532,0,0,0-5.789,2.73,9.868,9.868,0,0,0-2.445,6.838v.783a10.073,10.073,0,0,0,2.374,6.944,8.116,8.116,0,0,0,6.393,2.677,10.9,10.9,0,0,0,4.082-.685m-21.919-24.675v22.248l-2.9.5v2.24h9.3v-2.24l-2.9-.5v-25h-6.4v2.259Z"/><path class="a" d="M-222.54-79.316h7.03l-13.367-27.1-13.44,27.1h6.957l2.375-4.917h8.087Zm-3.513-9.615h-5.664l2.84-6.483Z"/><path class="c" d="M-256.755-79.316v-2.652l-2.36-.517V-92.75a4.31,4.31,0,0,1,1.524-1.559,4.209,4.209,0,0,1,2.2-.56,3.316,3.316,0,0,1,2.515.887,4.308,4.308,0,0,1,.844,3.006v8.491l-2.428.517v2.652h9.352v-2.652l-2.584-.517v-8.526q0-3.754-1.6-5.52a5.737,5.737,0,0,0-4.478-1.765,6.167,6.167,0,0,0-3.143.8,6.758,6.758,0,0,0-2.316,2.247l-.224-2.7h-6.717v2.67l2.721.517v12.28l-2.584.517v2.652Zm-22.554-3.763a4.565,4.565,0,0,1-1.413-2.171,10.219,10.219,0,0,1-.456-3.194v-.362a10.082,10.082,0,0,1,.456-3.169,4.648,4.648,0,0,1,1.4-2.17,3.58,3.58,0,0,1,2.377-.793,3.63,3.63,0,0,1,2.411.793,4.706,4.706,0,0,1,1.412,2.17,9.873,9.873,0,0,1,.466,3.169v.362a10.007,10.007,0,0,1-.466,3.194,4.694,4.694,0,0,1-1.4,2.171,3.6,3.6,0,0,1-2.386.783,3.665,3.665,0,0,1-2.4-.783m6.992,2.919a7.909,7.909,0,0,0,2.954-3.35,11.233,11.233,0,0,0,1.034-4.934v-.362a11.179,11.179,0,0,0-1.034-4.926,7.958,7.958,0,0,0-2.962-3.35,8.483,8.483,0,0,0-4.616-1.214,8.364,8.364,0,0,0-4.581,1.223,8.011,8.011,0,0,0-2.963,3.358,11.137,11.137,0,0,0-1.033,4.909v.362a11.233,11.233,0,0,0,1.033,4.934,7.889,7.889,0,0,0,2.963,3.35,8.526,8.526,0,0,0,4.615,1.206,8.453,8.453,0,0,0,4.59-1.206m-18.265.844v-2.652l-2.584-.517V-92.2a4.241,4.241,0,0,1,1.283-1.481,3.025,3.025,0,0,1,1.956-.465l2.428.137.5-4.013a7.074,7.074,0,0,0-.886-.189,6.611,6.611,0,0,0-1.025-.086,4.144,4.144,0,0,0-2.524.792,6.179,6.179,0,0,0-1.817,2.274l-.034-.379-.224-2.343h-6.717v2.67l2.721.517v12.28l-2.583.517v2.652Zm-23.088-3.763a4.571,4.571,0,0,1-1.412-2.171,10.189,10.189,0,0,1-.457-3.194v-.362a10.053,10.053,0,0,1,.457-3.169,4.654,4.654,0,0,1,1.4-2.17,3.582,3.582,0,0,1,2.377-.793,3.63,3.63,0,0,1,2.411.793,4.708,4.708,0,0,1,1.413,2.17,9.9,9.9,0,0,1,.465,3.169v.362a10.037,10.037,0,0,1-.465,3.194,4.687,4.687,0,0,1-1.4,2.171,3.6,3.6,0,0,1-2.385.783,3.666,3.666,0,0,1-2.4-.783m6.993,2.919a7.922,7.922,0,0,0,2.954-3.35,11.233,11.233,0,0,0,1.033-4.934v-.362a11.179,11.179,0,0,0-1.033-4.926,7.967,7.967,0,0,0-2.963-3.35A8.483,8.483,0,0,0-311.3-98.3a8.366,8.366,0,0,0-4.581,1.223,8.018,8.018,0,0,0-2.963,3.358,11.137,11.137,0,0,0-1.033,4.909v.362a11.233,11.233,0,0,0,1.033,4.934,7.9,7.9,0,0,0,2.963,3.35,8.528,8.528,0,0,0,4.616,1.206,8.458,8.458,0,0,0,4.59-1.206m-19.394.4a6.022,6.022,0,0,0,2.446-2.23,7.84,7.84,0,0,0,1.076-3.247l-.052-.1h-3.754a3.88,3.88,0,0,1-1.231,2.239,3.6,3.6,0,0,1-2.438.809,3.656,3.656,0,0,1-2.2-.689,4.442,4.442,0,0,1-1.49-2.032,8.989,8.989,0,0,1-.533-3.307v-.6a8.869,8.869,0,0,1,.525-3.194,4.787,4.787,0,0,1,1.533-2.145,3.875,3.875,0,0,1,2.437-.775,4.257,4.257,0,0,1,1.619.3,3.524,3.524,0,0,1,1.223.8l.637,3.29h3.307l-.017-4.978a9.257,9.257,0,0,0-2.911-1.9,10.465,10.465,0,0,0-4.168-.766,8.3,8.3,0,0,0-4.538,1.214,7.994,7.994,0,0,0-2.954,3.333,10.859,10.859,0,0,0-1.034,4.822v.6a10.852,10.852,0,0,0,1.042,4.866,7.961,7.961,0,0,0,2.963,3.307,8.4,8.4,0,0,0,4.538,1.2,8.644,8.644,0,0,0,3.97-.81"/><path class="b" d="M-217.5-106.478a11.41,11.41,0,0,0-11.41-11.41,11.411,11.411,0,0,0-11.41,11.41,11.394,11.394,0,0,0,4.9,9.363l2.558-5.159a5.755,5.755,0,0,1-1.823-4.2,5.776,5.776,0,0,1,5.776-5.776,5.776,5.776,0,0,1,5.776,5.776,5.753,5.753,0,0,1-1.655,4.044l2.561,5.192a11.384,11.384,0,0,0,4.728-9.236"/></g></svg>