<svg xmlns="http://www.w3.org/2000/svg" xmlns:xlink="http://www.w3.org/1999/xlink" width="71.693" height="71.693" viewBox="0 0 71.693 71.693"><defs><style>.a{fill:none;}.b{clip-path:url(#a);}.c{fill:#f3f7f7;}.d{fill:#e7eef0;}.e{fill:#ed1d24;}.f{fill:#092d36;}</style><clipPath id="a"><rect class="a" width="71.693" height="71.693" transform="translate(549.517 -390.316)"/></clipPath></defs><g transform="translate(-549.517 390.316)"><g class="b"><path class="c" d="M585.363-320.785a33.684,33.684,0,0,0,33.684-33.684,33.684,33.684,0,0,0-33.684-33.684,33.683,33.683,0,0,0-33.683,33.684,33.683,33.683,0,0,0,33.683,33.684"/><path class="d" d="M585.363-318.622a35.887,35.887,0,0,1-35.846-35.847,35.887,35.887,0,0,1,35.846-35.847,35.888,35.888,0,0,1,35.847,35.847A35.888,35.888,0,0,1,585.363-318.622Zm0-67.368a31.556,31.556,0,0,0-31.52,31.521,31.556,31.556,0,0,0,31.52,31.52,31.557,31.557,0,0,0,31.521-31.52A31.557,31.557,0,0,0,585.363-385.99Z"/><path class="e" d="M597.68-362.971a12.317,12.317,0,0,0-12.317-12.316,12.316,12.316,0,0,0-12.316,12.316,12.3,12.3,0,0,0,5.287,10.106l7.174-14.464L592.576-353a12.287,12.287,0,0,0,5.1-9.969"/><path class="c" d="M585.363-356.736a6.234,6.234,0,0,0,6.235-6.234,6.235,6.235,0,0,0-6.235-6.236,6.236,6.236,0,0,0-6.235,6.236,6.235,6.235,0,0,0,6.235,6.234"/></g></g><g transform="translate(-549.517 390.316)"><path class="f" d="M581.51-342.143l.276,1.494-3.381,7H570.9L585.4-362.9l14.428,29.251h-7.588l-3.223-6.723.236-1.808-3.853-8.846ZM578.6-344.03h13.642l.472,5.071H578.168Z"/></g></svg>